HIERARCHY
ROOT joint_Root
{
	OFFSET 0.0 0.0 0.0
	CHANNELS 6 Xposition Yposition Zposition Zrotation Xrotation Yrotation 
	JOINT Hips
	{
		OFFSET -0.726466 93.3139 -2.00062
		CHANNELS 6 Xposition Yposition Zposition Zrotation Xrotation Yrotation 
		JOINT Spine
		{
			OFFSET 15.7357 0.0 0.0
			CHANNELS 6 Xposition Yposition Zposition Zrotation Xrotation Yrotation 
			JOINT Chest
			{
				OFFSET 8.98455 -0.406207 0.0
				CHANNELS 6 Xposition Yposition Zposition Zrotation Xrotation Yrotation 
				JOINT Neck
				{
					OFFSET 16.3773 0.0 0.0
					CHANNELS 6 Xposition Yposition Zposition Zrotation Xrotation Yrotation 
					JOINT Head
					{
						OFFSET 6.45672 0.0 0.0
						CHANNELS 6 Xposition Yposition Zposition Zrotation Xrotation Yrotation 
						End Site
						{
							OFFSET 0.0 0.0 0.0
						}
					}
				}
				JOINT Shoulder_L
				{
					OFFSET 12.9942 -0.242716 4.98039
					CHANNELS 6 Xposition Yposition Zposition Zrotation Xrotation Yrotation 
					JOINT UpperArm_L
					{
						OFFSET 5.34809 0.0 0.0
						CHANNELS 6 Xposition Yposition Zposition Zrotation Xrotation Yrotation 
						JOINT LowerArm_L
						{
							OFFSET 24.3286 1.87007e-05 0.0
							CHANNELS 6 Xposition Yposition Zposition Zrotation Xrotation Yrotation 
							JOINT Hand_L
							{
								OFFSET 22.2916 0.0 0.0
								CHANNELS 6 Xposition Yposition Zposition Zrotation Xrotation Yrotation 
								End Site
								{
									OFFSET 0.0 0.0 0.0
								}
							}
						}
					}
				}
				JOINT Shoulder_R
				{
					OFFSET 12.9945 -0.242716 -4.98039
					CHANNELS 6 Xposition Yposition Zposition Zrotation Xrotation Yrotation 
					JOINT UpperArm_R
					{
						OFFSET -5.34813 0.0 0.0
						CHANNELS 6 Xposition Yposition Zposition Zrotation Xrotation Yrotation 
						JOINT LowerArm_R
						{
							OFFSET -24.3289 0.000322201 0.0
							CHANNELS 6 Xposition Yposition Zposition Zrotation Xrotation Yrotation 
							JOINT Hand_R
							{
								OFFSET -22.2915 -0.000108084 0.0
								CHANNELS 6 Xposition Yposition Zposition Zrotation Xrotation Yrotation 
								End Site
								{
									OFFSET 0.0 0.0 0.0
								}
							}
						}
					}
				}
			}
		}
		JOINT UpperLeg_L
		{
			OFFSET -2.19248 -6.46944 0.0
			CHANNELS 6 Xposition Yposition Zposition Zrotation Xrotation Yrotation 
			JOINT LowerLeg_L
			{
				OFFSET 39.0811 0.0 -1.23785e-05
				CHANNELS 6 Xposition Yposition Zposition Zrotation Xrotation Yrotation 
				JOINT Foot_L
				{
					OFFSET 40.9854 0.0 -1.26872e-05
					CHANNELS 6 Xposition Yposition Zposition Zrotation Xrotation Yrotation 
					JOINT Toes_L
					{
						OFFSET 11.7543 0.0 0.0
						CHANNELS 6 Xposition Yposition Zposition Zrotation Xrotation Yrotation 
						End Site
						{
							OFFSET 0.0 0.0 0.0
						}
					}
				}
			}
		}
		JOINT UpperLeg_R
		{
			OFFSET -2.19251 6.46944 0.0
			CHANNELS 6 Xposition Yposition Zposition Zrotation Xrotation Yrotation 
			JOINT LowerLeg_R
			{
				OFFSET -39.0811 -0.00228153 -0.0401928
				CHANNELS 6 Xposition Yposition Zposition Zrotation Xrotation Yrotation 
				JOINT Foot_R
				{
					OFFSET -40.9854 0.0 0.0
					CHANNELS 6 Xposition Yposition Zposition Zrotation Xrotation Yrotation 
					JOINT Toes_R
					{
						OFFSET -11.7543 0.0 0.0
						CHANNELS 6 Xposition Yposition Zposition Zrotation Xrotation Yrotation 
						End Site
						{
							OFFSET 0.0 0.0 0.0
						}
					}
				}
			}
		}
	}
}
MOTION
Frames:	5
Frame Time:	0.0333333
0.000000 0.000000 0.000000 0.000000 0.000000 -0.000000 -147.298000 91.377300 191.981000 77.043700 79.364100 17.532800 15.735700 0.000005 -0.000001 101.177000 82.734100 -100.206000 8.984550 -0.406207 -0.000000 6.473110 2.797430 1.782030 16.377300 -0.000001 -0.000001 1.719260 1.157150 -0.259101 6.456720 -0.000001 -0.000000 2.001500 -0.140729 -1.915380 12.994200 -0.242716 4.980390 -89.267600 -1.946720 -69.376800 5.348090 -0.000007 -0.000001 -79.150500 25.160000 1.455030 24.328600 0.000019 0.000005 2.063130 7.957820 -14.585400 22.291600 -0.000001 0.000005 6.705030 5.406150 -3.138850 12.994500 -0.242716 -4.980390 88.826500 4.610040 -75.701900 -5.348130 -0.000001 -0.000004 -52.775700 32.030500 -41.808200 -24.328900 0.000322 -0.000009 2.222650 3.928030 -29.547200 -22.291500 -0.000108 -0.000004 12.856600 5.418730 -3.556060 -2.192480 -6.469440 -0.000000 -177.952000 -10.915000 -21.539500 39.081100 -0.000007 -0.000012 -0.011770 0.019630 30.947600 40.985400 -0.000006 -0.000013 6.455590 -5.930810 -52.743700 11.754300 -0.000000 0.000003 -0.005201 -0.063409 -19.156900 -2.192510 6.469440 -0.000001 -177.982000 16.283300 -176.974000 -39.081100 -0.002282 -0.040193 -0.026675 0.076823 21.327100 -40.985400 0.000008 0.000006 7.338700 8.246040 -70.815400 -11.754300 -0.000006 -0.000006 -0.009502 -0.099880 -20.642000
0.000000 0.000000 0.000000 0.000000 0.000000 -0.000000 -144.487000 90.808300 192.176000 73.882200 78.518200 20.131900 15.735700 0.000005 -0.000001 103.343000 82.840000 -102.146000 8.984550 -0.406207 -0.000000 6.141920 3.278700 2.216470 16.377300 -0.000001 -0.000001 1.619850 1.176820 -0.294881 6.456720 -0.000001 -0.000000 2.010900 -0.395235 -1.941320 12.994200 -0.242716 4.980390 -89.101500 -2.356820 -69.123600 5.348090 -0.000007 -0.000001 -80.029300 22.208000 3.030420 24.328600 0.000019 0.000005 1.962680 8.766050 -12.672700 22.291600 -0.000001 0.000005 7.377810 5.379280 -2.276320 12.994500 -0.242716 -4.980390 88.925400 4.274110 -75.873500 -5.348130 -0.000001 -0.000004 -51.642200 30.951200 -43.628200 -24.328900 0.000322 -0.000009 2.298220 3.536810 -33.059300 -22.291500 -0.000108 -0.000004 13.632700 5.430740 -3.964210 -2.192480 -6.469440 -0.000000 -176.847000 -11.427800 -20.354900 39.081100 -0.000007 -0.000012 -0.006508 0.021453 16.873400 40.985400 -0.000006 -0.000013 2.684260 -4.512800 -50.176000 11.754300 -0.000000 0.000003 -0.005143 -0.062846 -19.133900 -2.192510 6.469440 -0.000001 -177.936000 16.390100 -175.469000 -39.081100 -0.002282 -0.040193 -0.030778 0.085991 21.629000 -40.985400 0.000008 0.000006 7.399780 8.659320 -73.029300 -11.754300 -0.000006 -0.000006 -0.008923 -0.095407 -20.459100
0.000000 0.000000 0.000000 0.000000 0.000000 -0.000000 -141.435000 90.083500 192.371000 72.024000 77.816800 21.353300 15.735700 0.000005 -0.000001 105.346000 83.019300 -104.039000 8.984550 -0.406207 -0.000000 5.666170 3.661940 2.430380 16.377300 -0.000001 -0.000001 1.470780 1.152700 -0.223075 6.456720 -0.000001 -0.000000 2.188500 -0.569356 -1.781640 12.994200 -0.242716 4.980390 -88.905100 -2.860970 -69.046800 5.348090 -0.000007 -0.000001 -80.739400 20.288300 4.146070 24.328600 0.000019 0.000005 1.818160 9.521540 -10.862800 22.291600 -0.000001 0.000005 8.014090 5.357410 -1.601080 12.994500 -0.242716 -4.980390 88.964300 4.131760 -75.914900 -5.348130 -0.000001 -0.000004 -50.987000 30.152100 -44.500700 -24.328900 0.000322 -0.000009 2.400840 3.309610 -36.001300 -22.291500 -0.000108 -0.000004 14.289000 5.437570 -4.200840 -2.192480 -6.469440 -0.000000 -177.153000 -12.681200 -19.217600 39.081100 -0.000007 -0.000012 -0.001381 0.015940 4.949140 40.985400 -0.000006 -0.000013 4.745660 -2.216400 -51.463700 11.754300 -0.000000 0.000003 -0.004811 -0.059631 -19.002900 -2.192510 6.469440 -0.000001 -177.747000 15.325000 -174.215000 -39.081100 -0.002282 -0.040193 -0.001802 0.012421 22.396400 -40.985400 0.000008 0.000006 7.925790 7.575880 -75.503000 -11.754300 -0.000006 -0.000006 -0.008235 -0.089936 -20.235600
0.000000 0.000000 0.000000 0.000000 0.000000 -0.000000 -138.033000 89.351000 192.423000 72.479000 77.357300 20.462300 15.735700 0.000005 -0.000001 106.631000 83.164700 -105.419000 8.984550 -0.406207 -0.000000 5.302330 3.877990 2.242150 16.377300 -0.000001 -0.000001 1.378380 1.085780 -0.032767 6.456720 -0.000001 -0.000000 2.155020 -0.643412 -1.648890 12.994200 -0.242716 4.980390 -88.845500 -3.014170 -69.029500 5.348090 -0.000007 -0.000001 -80.829000 19.128000 4.697820 24.328600 0.000019 0.000005 1.693380 10.082400 -9.585120 22.291600 -0.000001 0.000005 7.848610 5.334910 -0.928980 12.994500 -0.242716 -4.980390 88.959000 4.137580 -75.864400 -5.348130 -0.000001 -0.000004 -50.978200 29.640900 -44.626400 -24.328900 0.000322 -0.000009 2.273930 2.930650 -37.849000 -22.291500 -0.000108 -0.000004 14.711100 5.448870 -4.599070 -2.192480 -6.469440 -0.000000 -177.751000 -14.262000 -20.506400 39.081100 -0.000007 -0.000012 0.000025 -0.000757 1.944100 40.985400 -0.000006 -0.000013 2.599660 -1.709700 -54.055000 11.754300 -0.000000 0.000003 -0.005221 -0.063594 -19.164400 -2.192510 6.469440 -0.000001 -178.379000 14.240000 -173.248000 -39.081100 -0.002282 -0.040193 0.001508 0.004027 24.149700 -40.985400 0.000008 0.000006 7.514210 6.748100 -76.947000 -11.754300 -0.000006 -0.000006 -0.008822 -0.094617 -20.426800
0.000000 0.000000 0.000000 0.000000 0.000000 -0.000000 -134.163000 88.708300 192.370000 73.448400 77.256100 19.431800 15.735700 0.000005 -0.000001 107.012000 83.217300 -105.981000 8.984550 -0.406207 -0.000000 5.180860 3.937030 1.880390 16.377300 -0.000001 -0.000001 1.149860 0.919361 0.090660 6.456720 -0.000001 -0.000000 2.167650 -0.764644 -1.282930 12.994200 -0.242716 4.980390 -88.935100 -2.776790 -69.008000 5.348090 -0.000007 -0.000001 -80.415400 19.134000 4.499000 24.328600 0.000019 0.000005 1.612830 10.617100 -8.688700 22.291600 -0.000001 0.000005 7.552350 5.319390 -0.478018 12.994500 -0.242716 -4.980390 88.902400 4.308210 -75.692700 -5.348130 -0.000001 -0.000004 -51.491300 29.556000 -43.742200 -24.328900 0.000322 -0.000009 2.175840 2.716320 -38.733800 -22.291500 -0.000108 -0.000004 15.167100 5.454180 -4.789510 -2.192480 -6.469440 -0.000000 -178.198000 -13.900600 -23.333700 39.081100 -0.000007 -0.000012 0.012465 -0.091749 7.737320 40.985400 -0.000006 -0.000013 4.458410 -4.577010 -55.582400 11.754300 -0.000000 0.000003 -0.005146 -0.062879 -19.135300 -2.192510 6.469440 -0.000001 -179.581000 13.362600 -172.047000 -39.081100 -0.002282 -0.040193 0.005642 -0.004713 26.333900 -40.985400 0.000008 0.000006 7.044520 6.483340 -76.551700 -11.754300 -0.000006 -0.000006 -0.287864 -0.407360 -21.913700
